<svg id="Layer_1" data-name="Layer 1" xmlns="http://www.w3.org/2000/svg" viewBox="0 0 260 260"><defs><style>.cls-1{fill:#278738;}.cls-2{fill:#74d406;}.cls-3{fill:#3ab11f;}</style></defs><path class="cls-1" d="M181.57,121.25,111.29,56.63v140l70.3-65.05A6.88,6.88,0,0,0,181.57,121.25Z"/><path class="cls-2" d="M251.44,121.49,124.75,5c-5-4.58-13.46-1.33-13.46,5.15v46.5l70.28,64.62a6.88,6.88,0,0,1,0,10.29l-70.3,65.05v47c0,6.49,8.5,9.73,13.47,5.14l126.69-117A6.88,6.88,0,0,0,251.44,121.49Z"/><path class="cls-3" d="M54.31,4.43c-5-4.55-13.45-1.3-13.45,5.17V243.74c0,6.47,8.49,9.72,13.46,5.15l57-52.3v-140Z"/></svg>